Coordinates
version=1
nRows=29
nColumns=24
inDegrees=yes

Units are S.I. units (second, meters, Newtons, ...)
Angles are in degrees.

endheader
time	pelvis_tilt	pelvis_list	pelvis_rotation	pelvis_tx	pelvis_ty	pelvis_tz	hip_flexion_r	hip_adduction_r	hip_rotation_r	knee_angle_r	ankle_angle_r	subtalar_angle_r	mtp_angle_r	hip_flexion_l	hip_adduction_l	hip_rotation_l	knee_angle_l	ankle_angle_l	subtalar_angle_l	mtp_angle_l	lumbar_extension	lumbar_bending	lumbar_rotation
      1.15000000	     25.64483366	     -8.23911023	      0.37445469	     -0.67847360	      0.89134355	      0.01500482	    -44.06659890	     10.03472424	     25.85971018	     -0.22209259	     10.45102331	    -11.80462767	     28.70153460	     -1.99471851	     -6.27899109	     17.95163471	     -7.06538806	     -7.74160180	    -39.42756521	     24.36387192	    -33.67079680	      7.29697255	      7.45433234
      1.15500000	     25.57112298	     -7.90038260	      1.21533092	     -0.67240330	      0.89045016	      0.01335795	    -44.13194533	     10.35334782	     24.35708206	     -0.70775388	     10.77457583	    -10.57386145	     29.01312503	     -1.64343216	     -5.73219839	     19.08106360	     -7.80978686	     -8.16405470	    -39.39016548	     24.27323769	    -33.43436083	      7.33149315	      6.44955022
      1.16000000	     25.55197717	     -7.51229589	      2.06645848	     -0.66628616	      0.88968266	      0.01169591	    -44.24217065	     10.63272404	     22.79602176	     -1.22037503	     11.12584488	     -9.19326716	     29.36571444	     -1.40773496	     -5.12668312	     20.22502133	     -8.54112772	     -8.69211243	    -39.43487488	     24.07261195	    -33.25252139	      7.31243488	      5.38046718
      1.16500000	     25.48340424	     -7.14710176	      2.93345884	     -0.66013759	      0.88894032	      0.01002586	    -44.25475814	     10.95772062	     21.20468468	     -1.81959807	     11.32681248	     -7.88031695	     29.71619307	     -1.14002114	     -4.53785404	     21.40502124	     -9.31215032	     -9.24485553	    -39.48393156	     23.80696271	    -33.02028869	      7.31590784	      4.33499701
      1.17000000	     25.42469054	     -6.74989530	      3.80095865	     -0.65394635	      0.88830519	      0.00836789	    -44.25101481	     11.25567321	     19.58415471	     -2.47000789	     11.54529400	     -6.46930794	     30.13250176	     -0.93723300	     -3.91628924	     22.59982175	    -10.05728092	     -9.86711053	    -39.56036360	     23.43919511	    -32.79943991	      7.27760708	      3.24297635
      1.17500000	     25.35223633	     -6.34986533	      4.67846071	     -0.64773704	      0.88774645	      0.00671352	    -44.19477959	     11.56117843	     17.93192735	     -3.18383692	     11.66938696	     -5.08558718	     30.58245928	     -0.75504308	     -3.29155537	     23.82297395	    -10.80268348	    -10.50325574	    -39.62912185	     23.00252562	    -32.56747537	      7.23092312	      2.15679848
      1.18000000	     25.30280769	     -5.91418899	      5.55066550	     -0.64150703	      0.88732598	      0.00509250	    -44.12899792	     11.83170087	     16.23779971	     -3.96638099	     11.82096710	     -3.58980525	     31.13943490	     -0.65611441	     -2.63934790	     25.04965483	    -11.50463548	    -11.19338344	    -39.71435224	     22.42432537	    -32.36801035	      7.13438708	      1.02825790
      1.18500000	     25.25338585	     -5.47879227	      6.41744398	     -0.63525618	      0.88703601	      0.00348223	    -44.00776194	     12.09621247	     14.47412733	     -4.84708537	     11.79988403	     -2.07631889	     31.82895934	     -0.60475442	     -1.99384700	     26.27936820	    -12.18452191	    -11.81634859	    -39.82311708	     21.63773368	    -32.17736535	      7.02835247	     -0.07565955
      1.19000000	     25.14442312	     -5.06403100	      7.29329863	     -0.62901564	      0.88677951	      0.00188071	    -43.76528212	     12.37554882	     12.72569487	     -5.82439572	     11.76828678	     -0.56295551	     32.54920225	     -0.51493091	     -1.37261630	     27.54186366	    -12.85570559	    -12.43237949	    -39.80520840	     20.88506270	    -31.93185134	      6.93520909	     -1.20397951
      1.19500000	     25.03510929	     -4.64256477	      8.15631621	     -0.62274608	      0.88665960	      0.00030114	    -43.46794624	     12.62475148	     10.89912689	     -6.89961500	     11.62677396	      1.02375403	     33.35296201	     -0.47482880	     -0.75241282	     28.79898368	    -13.49777638	    -12.97592391	    -39.79489132	     20.08356385	    -31.69274822	      6.81952321	     -2.30259731
      1.20000000	     24.99144634	     -4.19344216	      9.00293094	     -0.61650777	      0.88672920	     -0.00123838	    -43.18283502	     12.82446197	      8.98769902	     -8.08042083	     11.34489288	      2.68356774	     34.43641851	     -0.57276986	     -0.12922511	     30.05166021	    -14.07423087	    -13.39176079	    -39.84117222	     18.95185669	    -31.54489921	      6.66705338	     -3.40442574
      1.20500000	     24.79839498	     -3.80169434	      9.85203421	     -0.61024281	      0.88674403	     -0.00276771	    -42.66189385	     13.03840614	      7.09406037	     -9.38592472	     11.05613376	      4.33205209	     35.28533482	     -0.50302930	      0.45311735	     31.28259879	    -14.69192268	    -13.80701352	    -39.67666966	     18.21575069	    -31.23822396	      6.54950857	     -4.50060550
      1.21000000	     24.64230916	     -3.41446364	     10.68333662	     -0.60398498	      0.88689150	     -0.00427099	    -42.10740328	     13.20963651	      5.10521145	    -10.82920672	     10.61101170	      6.06361723	     36.10475994	     -0.54411383	      1.00401151	     32.53958809	    -15.21973526	    -14.02328261	    -39.63085112	     17.58613813	    -30.98217303	      6.42414812	     -5.58092622
      1.21500000	     24.50014903	     -3.00402854	     11.49912959	     -0.59774711	      0.88716087	     -0.00576622	    -41.51950061	     13.30328160	      3.02665808	    -12.36023964	     10.10246375	      7.92775683	     36.99328408	     -0.63830836	      1.56896042	     33.76194717	    -15.72948206	    -14.23463425	    -39.58065052	     16.95924201	    -30.75791660	      6.26609672	     -6.64316069
      1.22000000	     24.34610008	     -2.58512553	     12.28478969	     -0.59151016	      0.88751915	     -0.00720627	    -40.86490455	     13.31745639	      0.88852089	    -13.99614142	      9.47841403	      9.82436609	     37.96335635	     -0.76653948	      2.12536336	     34.93459581	    -16.18977661	    -14.39654922	    -39.52563682	     16.30912141	    -30.53670418	      6.07539199	     -7.69622189
      1.22500000	     24.22649267	     -2.16521376	     13.06743230	     -0.58534500	      0.88802254	     -0.00869210	    -40.23803574	     13.28355308	     -1.21623390	    -15.59197584	      8.37896965	     11.22291425	     42.67253567	     -0.99894875	      2.66759526	     36.20303247	    -16.57209562	    -14.46180141	    -39.54149691	     12.05829301	    -30.37112635	      5.89249428	     -8.73617100
      1.23000000	     24.01510146	     -1.77292513	     13.81117742	     -0.57910483	      0.88842680	     -0.01008559	    -39.41185757	     13.15775332	     -3.46492785	    -17.45457407	      7.58803168	     13.17462351	     43.00543017	     -1.10945489	      3.18204062	     37.25461604	    -17.02532680	    -14.13125633	    -39.12477704	     11.87939556	    -30.10853611	      5.69061878	     -9.74867575
      1.23500000	     23.83433982	     -1.37280230	     14.53033144	     -0.57294092	      0.88893455	     -0.01149424	    -38.58556793	     12.93493016	     -5.75125961	    -19.38428634	      6.61461969	     15.12901328	     43.51553443	     -1.29758014	      3.68653774	     38.28719997	    -17.41010688	    -14.05473410	    -39.01745301	     11.56077629	    -29.89989581	      5.48018537	    -10.73797975
      1.24000000	     23.60318047	     -0.99341381	     15.22482732	     -0.56676521	      0.88943203	     -0.01290810	    -37.68000614	     12.62992906	     -8.02144633	    -21.37175773	      5.49093122	     16.93458523	     44.09219411	     -1.48850304	      4.16117737	     39.37072931	    -17.70254731	    -13.89351599	    -39.03630728	     11.25760437	    -29.64288899	      5.26819235	    -11.69566444
      1.24500000	     23.38605098	     -0.61830746	     15.89858319	     -0.56065576	      0.88996989	     -0.01431334	    -36.77048135	     12.23955042	    -10.29629408	    -23.40879766	      4.24736773	     18.61037539	     44.74375294	     -1.70578494	      4.62124773	     40.38301245	    -17.99183809	    -13.76352028	    -39.08719456	     10.93511703	    -29.41715349	      5.05400284	    -12.62722252
      1.25000000	     23.15018337	     -0.25443312	     16.53971911	     -0.55456793	      0.89052012	     -0.01569936	    -35.83728516	     11.76300740	    -12.52127584	    -25.47220453	      2.90315595	     20.08024794	     45.41237272	     -1.94436743	      5.05370091	     41.38981305	    -18.20931767	    -13.57510274	    -39.18559477	     10.61866022	    -29.18263817	      4.83176173	    -13.52533084
      1.25500000	     22.91325369	      0.10301476	     17.15136607	     -0.54851114	      0.89108806	     -0.01708278	    -34.90972970	     11.20409207	    -14.68905572	    -27.54977679	      1.48691287	     21.31735203	     46.11073283	     -2.20874305	      5.46523461	     42.35533785	    -18.38319069	    -13.38042576	    -39.32034483	     10.28218884	    -28.95714812	      4.60619918	    -14.38782073
      1.26000000	     22.66795436	      0.44068329	     17.74055005	     -0.54249699	      0.89165966	     -0.01845765	    -33.98554081	     10.59385761	    -16.75270833	    -29.61006031	      0.05419819	     22.25111242	     46.70146813	     -2.48730545	      5.84372330	     43.30934100	    -18.51134207	    -13.13752148	    -39.49206371	      9.99174583	    -28.72926160	      4.39008837	    -15.22277823
      1.26500000	     22.42412472	      0.76169157	     18.30743517	     -0.53649575	      0.89224440	     -0.01981252	    -33.08571745	      9.94058131	    -18.71632341	    -31.63969409	     -1.36812531	     22.84139037	     47.10174504	     -2.80777222	      6.17250282	     44.28259766	    -18.54511640	    -12.84693470	    -39.68290524	      9.78706278	    -28.50775646	      4.17941721	    -16.02688294
      1.27000000	     22.19961548	      1.07640189	     18.82155561	     -0.53057239	      0.89285769	     -0.02112911	    -32.21403265	      9.21276816	    -20.58896085	    -33.67524418	     -2.69481729	     23.25273638	     47.51339670	     -3.13262356	      6.49642802	     45.09526272	    -18.61568614	    -12.66553429	    -39.97206526	      9.52136486	    -28.32276413	      3.96605060	    -16.76625652
      1.27500000	     21.98256491	      1.36603610	     19.31369036	     -0.52466942	      0.89349286	     -0.02241045	    -31.37443850	      8.47901057	    -22.31575037	    -35.64595646	     -3.92459638	     23.27138699	     47.79152226	     -3.49750648	      6.76008502	     45.93382611	    -18.59388422	    -12.45400356	    -40.29039175	      9.27387771	    -28.14543185	      3.76994760	    -17.47153565
      1.28000000	     21.78736963	      1.63048117	     19.77641012	     -0.51879204	      0.89417781	     -0.02363743	    -30.57820476	      7.74914031	    -23.89431935	    -37.54378110	     -5.01849937	     22.93779141	     47.85609727	     -3.90427682	      6.95781391	     46.73306934	    -18.49597095	    -12.18629799	    -40.55238805	      9.13845476	    -27.99076562	      3.59406422	    -18.13929312
      1.28500000	     21.63621020	      1.89209792	     20.20268362	     -0.51301893	      0.89489922	     -0.02483293	    -29.83691849	      6.99510107	    -25.35314785	    -39.40750243	     -5.93023438	     22.40153149	     47.81350377	     -4.34487535	      7.13995217	     47.46123443	    -18.41975875	    -11.95218919	    -40.81234121	      9.05087174	    -27.89824631	      3.42787221	    -18.74296867
      1.29000000	     21.44863714	      2.09342766	     20.59793576	     -0.50719256	      0.89557844	     -0.02598385	    -29.06046764	      6.26526218	    -26.67482607	    -41.20152312	     -6.62040669	     21.61695431	     47.66010455	     -4.76022150	      7.24299414	     48.14261611	    -18.25129432	    -11.76606484	    -41.29906965	      8.89772487	    -27.74537710	      3.29594687	    -19.31149819
